# xmcd CD database file
#
# Track frame offsets:
#	150
#	12250
#	25609
#	35938
#	51471
#	61722
#	76529
#	89804
#	105842
#	116053
#
# Disc length: 1696 seconds
#
# Revision: 1
# Processed by: cddbd v1.5.2PL0 Copyright (c) Steve Scherf et al.
# Submitted via: CDex 1.70beta2
#
DISCID=75069e0a
DTITLE=Various Artist - Madacy's Best Of Bluegrass Vol. 2
DYEAR=2006
DGENRE=Bluegrass
TTITLE0=Blue Eyes Crying In The Rain (F. Rose)
TTITLE1=Rollin' In My Sweet Baby's Arms (Traditional)
TTITLE2=Oh! Susanna (Traditional)
TTITLE3=Close My Eyes (Steve Ivey)
TTITLE4=Tiger By The Tail (B Owens/H Howard)
TTITLE5=Rose Garden (J Smith)
TTITLE6=I Fall To Pieces (H Cochran/H Howard)
TTITLE7=Hey Good Lookin' (H.Williams)
TTITLE8=Cool Breeze'n (Steve Ivey)
TTITLE9=Wildwood Flower (A P Carter)
EXTD=Disc 2 of 4 (Madacy Label) YEAR: 2006
EXTT0=
EXTT1=
EXTT2=
EXTT3=
EXTT4=
EXTT5=
EXTT6=
EXTT7=
EXTT8=
EXTT9=
PLAYORDER=
